<?xml version="1.0" encoding="iso-8859-1"?>
<!-- Generator: Adobe Illustrator 19.0.0, SVG Export Plug-In . SVG Version: 6.00 Build 0)  -->
<svg version="1.1" id="Layer_1" xmlns="http://www.w3.org/2000/svg" xmlns:xlink="http://www.w3.org/1999/xlink" x="0px" y="0px"
	 viewBox="0 0 512 512" style="enable-background:new 0 0 512 512;" xml:space="preserve">
<rect x="278.411" y="117.173" transform="matrix(-0.7071 0.7071 -0.7071 -0.7071 740.2707 -39.0827)" style="fill:#FF675F;" width="199.636" height="33.202"/>
<path style="fill:#EF3E3B;" d="M453.04,82.436l53.015-53.014c7.289-7.29,7.97-18.535,1.514-24.993
	c-6.456-6.455-17.703-5.774-24.992,1.515L429.563,58.96L453.04,82.436z"/>
<path style="fill:#D1D3D4;" d="M240.696,315.274l-43.969-43.969c-36.124,32.19-70.798,65.963-103.91,101.227l46.652,46.652
	C174.733,386.071,208.506,351.398,240.696,315.274z"/>
<g>
	<path style="fill:#E5E5E5;" d="M193.502,366.007l-47.508-47.508c-8.869,8.605-17.643,17.308-26.314,26.113l47.708,47.707
		C176.192,383.649,184.896,374.876,193.502,366.007z"/>
	<path style="fill:#E5E5E5;" d="M200.404,268.058c-9.262,8.206-18.432,16.511-27.504,24.922l46.121,46.12
		c8.41-9.072,16.716-18.24,24.921-27.504L200.404,268.058z"/>
</g>
<path style="opacity:0.1;enable-background:new    ;" d="M181.494,301.573c0,0,23.137-21.005,23.85-21.651l-8.617-8.617
	c-36.124,32.19-70.798,65.963-103.91,101.227l8.591,8.591C127.171,353.685,153.892,327.162,181.494,301.573z"/>
<path style="fill:#FF994D;" d="M139.468,417.981c0.565,0.565,0.777,1.393,0.554,2.161c-4.563,15.667-16.782,29.721-37.349,42.966
	c-17.726,11.415-39.511,20.847-58.731,29.166c-15.381,6.658-29.908,12.947-40.621,19.41c-0.861,0.519-1.966,0.385-2.678-0.328
	c-0.713-0.713-0.846-1.817-0.328-2.679c6.463-10.713,12.752-25.238,19.41-40.62c8.321-19.22,17.751-41.005,29.166-58.731
	c13.245-20.569,27.299-32.786,42.966-37.349c0.767-0.224,1.596-0.011,2.161,0.555L139.468,417.981z"/>
<path style="opacity:0.1;enable-background:new    ;" d="M31.217,468.058c8.322-19.22,17.751-41.005,29.166-58.731
	c11.189-17.375,22.958-28.767,35.786-34.644l-2.151-2.15c-0.565-0.566-1.394-0.778-2.161-0.555
	c-15.667,4.563-29.721,16.781-42.966,37.349c-11.416,17.726-20.846,39.511-29.166,58.731c-6.658,15.382-12.947,29.907-19.41,40.62
	c-0.518,0.862-0.385,1.968,0.328,2.679c0.713,0.713,1.817,0.847,2.678,0.328c3.02-1.821,6.35-3.629,9.909-5.436
	C19.197,495.821,25.049,482.309,31.217,468.058z"/>
<g>
	<path style="fill:#FF8828;" d="M101.705,380.219l-39.135,39.134c-2.975,2.975-2.975,7.798,0,10.773
		c1.488,1.488,3.437,2.231,5.386,2.231c1.949,0,3.899-0.744,5.386-2.231l39.132-39.132L101.705,380.219z"/>
	<path style="fill:#FF8828;" d="M121.009,399.523l-22.832,22.832c-2.976,2.974-2.976,7.797,0,10.773
		c1.488,1.487,3.437,2.231,5.386,2.231s3.899-0.744,5.386-2.231l22.831-22.833L121.009,399.523z"/>
</g>
<path style="fill:#EF3E3B;" d="M240.727,315.239c31.698-35.577,61.86-72.561,90.378-110.868l-23.477-23.478
	c-38.306,28.519-75.291,58.681-110.868,90.381L240.727,315.239z"/>
<g>
</g>
<g>
</g>
<g>
</g>
<g>
</g>
<g>
</g>
<g>
</g>
<g>
</g>
<g>
</g>
<g>
</g>
<g>
</g>
<g>
</g>
<g>
</g>
<g>
</g>
<g>
</g>
<g>
</g>
</svg>
