<?xml version="1.0" encoding="iso-8859-1"?>
<!-- Generator: Adobe Illustrator 19.0.0, SVG Export Plug-In . SVG Version: 6.00 Build 0)  -->
<svg version="1.1" id="Layer_1" xmlns="http://www.w3.org/2000/svg" xmlns:xlink="http://www.w3.org/1999/xlink" x="0px" y="0px"
	 viewBox="0 0 511.999 511.999" style="enable-background:new 0 0 511.999 511.999;" xml:space="preserve">
<path style="fill:#FF675F;" d="M209.575,428.271H386.32c4.329,0,7.837,3.508,7.837,7.837c0,4.329-3.508,7.837-7.837,7.837H183.254
	c5.929,0,14.196-3.446,18.371-7.656L209.575,428.271z"/>
<path style="fill:#FF8380;" d="M200.316,175.879c6.631-6.555,6.631-17.185,0-23.742c-6.631-6.557-17.382-6.556-24.014,0
	c-6.633,6.558-6.633,17.186,0,23.742C182.934,182.434,193.685,182.434,200.316,175.879z"/>
<path style="fill:#FF675F;" d="M141.824,443.944c-5.929,0-14.196-3.446-18.372-7.656l-13.865-13.98
	c-4.175-4.21-4.175-11.101,0-15.311L442.575,71.212c4.176-4.21,11.01-4.21,15.185,0l51.107,51.534c4.175,4.21,4.175,11.101,0,15.311
	L213.119,436.288c-4.175,4.21-12.443,7.656-18.371,7.656H141.824z"/>
<path style="opacity:0.1;enable-background:new    ;" d="M137.923,422.308c-4.175-4.21-4.175-11.101,0-15.311L464.337,77.842
	l-6.576-6.63c-4.175-4.21-11.009-4.21-15.185,0L109.588,406.997c-4.175,4.21-4.175,11.101,0,15.311l13.865,13.98
	c4.176,4.21,12.444,7.656,18.372,7.656h28.336c-5.929,0-14.196-3.446-18.372-7.656L137.923,422.308z"/>
<g>
	<path style="fill:#E01013;" d="M153.996,420.487c2.068,0,4.086-0.836,5.548-2.299c1.452-1.452,2.288-3.469,2.288-5.538
		c0-2.058-0.837-4.086-2.288-5.538c-1.462-1.463-3.48-2.299-5.548-2.299c-2.059,0-4.075,0.836-5.539,2.299
		c-1.463,1.452-2.298,3.479-2.298,5.538c0,2.069,0.835,4.086,2.298,5.538C149.92,419.651,151.936,420.487,153.996,420.487z"/>
	<path style="fill:#E01013;" d="M207.567,366.475c2.059,0,4.086-0.846,5.538-2.299c1.463-1.462,2.299-3.478,2.299-5.538
		c0-2.068-0.836-4.086-2.299-5.548c-1.452-1.453-3.478-2.288-5.538-2.288c-2.069,0-4.086,0.836-5.538,2.288
		c-1.463,1.462-2.299,3.479-2.299,5.548c0,2.06,0.836,4.075,2.299,5.538C203.481,365.63,205.498,366.475,207.567,366.475z"/>
	<path style="fill:#E01013;" d="M234.347,339.466c2.058,0,4.086-0.836,5.538-2.299c1.463-1.463,2.299-3.479,2.299-5.538
		c0-2.069-0.836-4.086-2.299-5.549c-1.452-1.452-3.48-2.287-5.538-2.287c-2.058,0-4.074,0.836-5.538,2.287
		c-1.463,1.463-2.299,3.48-2.299,5.549c0,2.058,0.836,4.086,2.299,5.538C230.263,338.63,232.29,339.466,234.347,339.466z"/>
	<path style="fill:#E01013;" d="M194.255,423.683c2.069,0,4.086-0.836,5.549-2.287c1.452-1.463,2.287-3.479,2.287-5.549
		c0-2.058-0.836-4.086-2.287-5.538c-1.463-1.463-3.48-2.299-5.549-2.299c-2.058,0-4.075,0.836-5.538,2.299
		c-1.462,1.463-2.299,3.479-2.299,5.538c0,2.069,0.837,4.086,2.299,5.549C190.18,422.848,192.196,423.683,194.255,423.683z"/>
	<path style="fill:#E01013;" d="M241.641,375.901c2.059,0,4.086-0.836,5.549-2.288c1.453-1.462,2.287-3.479,2.287-5.548
		c0-2.059-0.835-4.075-2.287-5.538c-1.463-1.463-3.49-2.299-5.549-2.299c-2.057,0-4.085,0.836-5.537,2.299
		c-1.463,1.462-2.3,3.478-2.3,5.538c0,2.068,0.837,4.086,2.3,5.548C237.566,375.065,239.583,375.901,241.641,375.901z"/>
</g>
<g>
	<path style="fill:#FF8380;" d="M307.222,388.701h107.054c4.328,0,7.837-3.508,7.837-7.837c0-4.329-3.509-7.837-7.837-7.837H307.222
		c-4.329,0-7.837,3.508-7.837,7.837C299.385,385.194,302.894,388.701,307.222,388.701z"/>
	<path style="fill:#FF8380;" d="M420.173,443.944H484.8c4.328,0,7.837-3.508,7.837-7.837c0-4.329-3.509-7.837-7.837-7.837h-64.627
		c-4.329,0-7.837,3.508-7.837,7.837C412.336,440.435,415.845,443.944,420.173,443.944z"/>
	<path style="fill:#FF8380;" d="M131.577,294.886c2.099,2.095,5.533,2.095,7.632,0l13.409-13.386c2.099-2.095,2.099-5.522,0-7.617
		l-13.409-13.386c-2.099-2.096-5.533-2.096-7.632,0l-13.409,13.386c-2.1,2.095-2.1,5.522,0,7.617L131.577,294.886z"/>
</g>
<g>
	<path style="fill:#EF3E3B;" d="M43.006,382.571c2.098,2.096,5.533,2.096,7.631,0l13.41-13.386c2.1-2.095,2.1-5.522,0-7.617
		l-13.41-13.385c-2.098-2.095-5.533-2.095-7.631,0l-13.41,13.385c-2.098,2.095-2.098,5.522,0,7.617L43.006,382.571z"/>
	<path style="fill:#EF3E3B;" d="M14.984,282.844c2.098,2.095,5.533,2.095,7.631,0l13.411-13.388
		c2.099-2.095,2.098-5.522-0.001-7.617l-13.41-13.383c-2.098-2.095-5.533-2.095-7.631,0L1.575,261.839
		c-2.099,2.095-2.099,5.522-0.001,7.617L14.984,282.844z"/>
</g>
<g>
	<path style="fill:#E01013;" d="M466.081,142.571c-3.062-3.059-8.023-3.059-11.083,0c-3.06,3.062-3.06,8.023,0,11.083l19.283,19.283
		l11.037-11.13L466.081,142.571z"/>
	<path style="fill:#E01013;" d="M435.256,173.396c-3.062-3.059-8.023-3.059-11.083,0c-3.06,3.062-3.06,8.023,0,11.083l19.411,19.411
		l11.037-11.13L435.256,173.396z"/>
	<path style="fill:#E01013;" d="M404.432,204.22c-3.062-3.059-8.023-3.059-11.083,0c-3.06,3.062-3.06,8.023,0,11.083l19.54,19.54
		l11.037-11.129L404.432,204.22z"/>
	<path style="fill:#E01013;" d="M373.607,235.045c-3.062-3.059-8.023-3.059-11.083,0c-3.06,3.062-3.06,8.023,0,11.083l19.668,19.668
		l11.038-11.129L373.607,235.045z"/>
</g>
<g>
</g>
<g>
</g>
<g>
</g>
<g>
</g>
<g>
</g>
<g>
</g>
<g>
</g>
<g>
</g>
<g>
</g>
<g>
</g>
<g>
</g>
<g>
</g>
<g>
</g>
<g>
</g>
<g>
</g>
</svg>
